<?xml version="1.0" encoding="UTF-8"?>
<svg version="1.1" xmlns="http://www.w3.org/2000/svg" width="134" height="133">
<path d="M0 0 C10.23 0 20.46 0 31 0 C31 0.66 31 1.32 31 2 C35.95 2.495 35.95 2.495 41 3 C41 4.32 41 5.64 41 7 C41.969375 6.814375 42.93875 6.62875 43.9375 6.4375 C44.948125 6.293125 45.95875 6.14875 47 6 C48 7 48 7 48 14 C34.8 14 21.6 14 8 14 C8 14.99 8 15.98 8 17 C24.83 17 41.66 17 59 17 C59 17.99 59 18.98 59 20 C60.485 20.495 60.485 20.495 62 21 C62 21.66 62 22.32 62 23 C62.99 23 63.98 23 65 23 C65 25.64 65 28.28 65 31 C63.515 30.505 63.515 30.505 62 30 C62 31.32 62 32.64 62 34 C61.34 34 60.68 34 60 34 C59.67 35.32 59.34 36.64 59 38 C57.68 38 56.36 38 55 38 C55 38.99 55 39.98 55 41 C54.01 41 53.02 41 52 41 C52 41.99 52 42.98 52 44 C50.68 44 49.36 44 48 44 C48 44.99 48 45.98 48 47 C51.3 47 54.6 47 58 47 C57.814375 45.6696875 57.814375 45.6696875 57.625 44.3125 C58 41 58 41 59.3359375 39.59375 C59.88507813 39.1709375 60.43421875 38.748125 61 38.3125 C61.99 37.549375 62.98 36.78625 64 36 C64 35.01 64 34.02 64 33 C66.64 33 69.28 33 72 33 C72 37.29 72 41.58 72 46 C73.98 46.495 73.98 46.495 76 47 C76 54.92 76 62.84 76 71 C60.16 71 44.32 71 28 71 C28.33 71.99 28.66 72.98 29 74 C29.78375 74.103125 30.5675 74.20625 31.375 74.3125 C34 75 34 75 36 78 C36.495 76.02 36.495 76.02 37 74 C37.66 74 38.32 74 39 74 C39.33 73.34 39.66 72.68 40 72 C43.96 72 47.92 72 52 72 C52 72.66 52 73.32 52 74 C53.98 74 55.96 74 58 74 C58 73.34 58 72.68 58 72 C62.62 72 67.24 72 72 72 C72 76.29 72 80.58 72 85 C71.01 85 70.02 85 69 85 C69 86.98 69 88.96 69 91 C67.68 91 66.36 91 65 91 C65 92.32 65 93.64 65 95 C61.37 95 57.74 95 54 95 C54 95.66 54 96.32 54 97 C54.99 97 55.98 97 57 97 C57 98.32 57 99.64 57 101 C56.34 101 55.68 101 55 101 C55 102.32 55 103.64 55 105 C54.01 105 53.02 105 52 105 C52 105.99 52 106.98 52 108 C50.68 108 49.36 108 48 108 C48 109.32 48 110.64 48 112 C45.69 112 43.38 112 41 112 C41 112.99 41 113.98 41 115 C36.71 115 32.42 115 28 115 C28 115.99 28 116.98 28 118 C19.42 118 10.84 118 2 118 C2 105.13 2 92.26 2 79 C1.67 90.88 1.34 102.76 1 115 C-2.96 115 -6.92 115 -11 115 C-10.505 113.515 -10.505 113.515 -10 112 C-12.31 112 -14.62 112 -17 112 C-17.33 110.68 -17.66 109.36 -18 108 C-19.32 108 -20.64 108 -22 108 C-22 107.34 -22 106.68 -22 106 C-23.485 105.505 -23.485 105.505 -25 105 C-25 104.01 -25 103.02 -25 102 C-26.32 101.67 -27.64 101.34 -29 101 C-29 100.01 -29 99.02 -29 98 C-29.99 98 -30.98 98 -32 98 C-32 97.01 -32 96.02 -32 95 C-32.99 94.67 -33.98 94.34 -35 94 C-35.04254356 92.00045254 -35.04080783 89.99958364 -35 88 C-34 87 -34 87 -32.14233398 86.88647461 C-30.95619507 86.89432983 -30.95619507 86.89432983 -29.74609375 86.90234375 C-28.46508789 86.90717773 -28.46508789 86.90717773 -27.15820312 86.91210938 C-26.26037109 86.92048828 -25.36253906 86.92886719 -24.4375 86.9375 C-23.53580078 86.94201172 -22.63410156 86.94652344 -21.70507812 86.95117188 C-19.46998686 86.96299775 -17.23502563 86.9794778 -15 87 C-15 86.34 -15 85.68 -15 85 C-23.91 85 -32.82 85 -42 85 C-42.09765625 74.16015625 -42.09765625 74.16015625 -42 71 C-41 70 -41 70 -37.06274414 69.93408203 C-35.30349684 69.95465852 -33.54429698 69.97955721 -31.78515625 70.0078125 C-29.88346888 70.02532871 -27.98177582 70.042237 -26.08007812 70.05859375 C-23.06665571 70.08959654 -20.05351243 70.12513795 -17.0402832 70.17138672 C-14.14270467 70.21359022 -11.24545732 70.23713 -8.34765625 70.2578125 C-7.44241714 70.27643341 -6.53717804 70.29505432 -5.60450745 70.3142395 C-4.3482682 70.31942093 -4.3482682 70.31942093 -3.06665039 70.32470703 C-1.9586483 70.33922409 -1.9586483 70.33922409 -0.82826233 70.35403442 C-0.22493576 70.23720306 0.37839081 70.1203717 1 70 C1.99 68.515 1.99 68.515 3 67 C3.99 67 4.98 67 6 67 C6 66.34 6 65.68 6 65 C-11.16 65 -28.32 65 -46 65 C-46 58.4 -46 51.8 -46 45 C-45.01 44.34 -44.02 43.68 -43 43 C-42.00278877 39.64574405 -41.90048788 36.48292433 -42 33 C-41.34 33 -40.68 33 -40 33 C-39.67 31.02 -39.34 29.04 -39 27 C-37.68 27 -36.36 27 -35 27 C-34.67 25.68 -34.34 24.36 -34 23 C-33.34 23 -32.68 23 -32 23 C-32 22.01 -32 21.02 -32 20 C-31.34 20 -30.68 20 -30 20 C-29.67 19.01 -29.34 18.02 -29 17 C-27.66666667 16.66666667 -26.33333333 16.33333333 -25 16 C-24.67 15.01 -24.34 14.02 -24 13 C-23.34 12.67 -22.68 12.34 -22 12 C-21.34 11.34 -20.68 10.68 -20 10 C-19.0409375 9.7834375 -19.0409375 9.7834375 -18.0625 9.5625 C-15.62027406 8.89643838 -14.63822323 7.88395671 -13 6 C-12.34 6.33 -11.68 6.66 -11 7 C-10.67 5.68 -10.34 4.36 -10 3 C-6.7 3 -3.4 3 0 3 C0 2.01 0 1.02 0 0 Z M8 31 C7.67 32.32 7.34 33.64 7 35 C17.23 35 27.46 35 38 35 C38 35.66 38 36.32 38 37 C38.66 37 39.32 37 40 37 C40 35.68 40 34.36 40 33 C41.32 33 42.64 33 44 33 C44 32.34 44 31.68 44 31 C32.12 31 20.24 31 8 31 Z M32 44 C31.67 44.99 31.34 45.98 31 47 C31.99 46.67 32.98 46.34 34 46 C33.34 45.34 32.68 44.68 32 44 Z M8 48 C8 49.65 8 51.3 8 53 C9.93681161 53.08107583 11.8745934 53.13922475 13.8125 53.1875 C14.89144531 53.22230469 15.97039062 53.25710937 17.08203125 53.29296875 C19.99446259 53.25048075 19.99446259 53.25048075 21.88671875 51.61328125 C23.18932193 50.05233599 23.18932193 50.05233599 23 48 C18.05 48 13.1 48 8 48 Z M38 78 C38 78.66 38 79.32 38 80 C38.66 80 39.32 80 40 80 C40 79.34 40 78.68 40 78 C39.34 78 38.68 78 38 78 Z M41 81 C40.67 81.66 40.34 82.32 40 83 C40.66 83.66 41.32 84.32 42 85 C42.99 84.67 43.98 84.34 45 84 C44.67 83.01 44.34 82.02 44 81 C43.01 81 42.02 81 41 81 Z M45 85 C45.33 85.99 45.66 86.98 46 88 C46.33 87.01 46.66 86.02 47 85 C46.34 85 45.68 85 45 85 Z M48 88 C48 88.66 48 89.32 48 90 C48.99 90.33 49.98 90.66 51 91 C51.33 91.99 51.66 92.98 52 94 C52.66 94 53.32 94 54 94 C54.33 93.01 54.66 92.02 55 91 C51.94419026 88.41222792 51.94419026 88.41222792 48 88 Z " fill="#D4D3D2" transform="translate(52,10)"/>
<path d="M0 0 C0 0.66 0 1.32 0 2 C-13.2 2 -26.4 2 -40 2 C-40 19.16 -40 36.32 -40 54 C-38.68 54.33 -37.36 54.66 -36 55 C-39.33239991 57.22159994 -40.2500076 57.22881338 -44.11401367 57.13525391 C-45.15486618 57.11508209 -46.19571869 57.09491028 -47.26811218 57.0741272 C-48.39006485 57.04193085 -49.51201752 57.0097345 -50.66796875 56.9765625 C-51.81791824 56.95153656 -52.96786774 56.92651062 -54.15266418 56.90072632 C-57.83123932 56.81845183 -61.50928358 56.72188984 -65.1875 56.625 C-67.67901466 56.56676814 -70.17055121 56.50946471 -72.66210938 56.453125 C-78.77503448 56.31286181 -84.88758416 56.16086184 -91 56 C-91.08685287 52.70849875 -91.14033895 49.4172904 -91.1875 46.125 C-91.21263672 45.18785156 -91.23777344 44.25070313 -91.26367188 43.28515625 C-91.27333984 42.38925781 -91.28300781 41.49335937 -91.29296875 40.5703125 C-91.3086792 39.74289551 -91.32438965 38.91547852 -91.34057617 38.06298828 C-91.22818604 37.38220215 -91.1157959 36.70141602 -91 36 C-90.01 35.34 -89.02 34.68 -88 34 C-87.00278877 30.64574405 -86.90048788 27.48292433 -87 24 C-86.34 24 -85.68 24 -85 24 C-84.67 22.02 -84.34 20.04 -84 18 C-82.68 18 -81.36 18 -80 18 C-79.67 16.68 -79.34 15.36 -79 14 C-78.34 14 -77.68 14 -77 14 C-77 13.01 -77 12.02 -77 11 C-76.34 11 -75.68 11 -75 11 C-74.67 10.01 -74.34 9.02 -74 8 C-72.66666667 7.66666667 -71.33333333 7.33333333 -70 7 C-69.67 6.01 -69.34 5.02 -69 4 C-68.34 3.67 -67.68 3.34 -67 3 C-66.34 2.34 -65.68 1.68 -65 1 C-64.0409375 0.7834375 -64.0409375 0.7834375 -63.0625 0.5625 C-60.62027406 -0.10356162 -59.63822323 -1.11604329 -58 -3 C-57.34 -2.67 -56.68 -2.34 -56 -2 C-55.67 -3.32 -55.34 -4.64 -55 -6 C-17.33525326 -9.15280391 -17.33525326 -9.15280391 0 0 Z " fill="#4C5983" transform="translate(97,19)"/>
<path d="M0 0 C1.58206057 0.00667536 3.16410534 0.0186375 4.74609375 0.03515625 C5.55240234 0.03966797 6.35871094 0.04417969 7.18945312 0.04882812 C9.18753131 0.06065107 11.18557158 0.07858711 13.18359375 0.09765625 C13.18359375 0.42765625 13.18359375 0.75765625 13.18359375 1.09765625 C8.23359375 1.09765625 3.28359375 1.09765625 -1.81640625 1.09765625 C-1.81640625 2.74765625 -1.81640625 4.39765625 -1.81640625 6.09765625 C2.14359375 6.09765625 6.10359375 6.09765625 10.18359375 6.09765625 C10.51359375 5.10765625 10.84359375 4.11765625 11.18359375 3.09765625 C18.42845926 3.07238886 25.67331349 3.05482445 32.91821289 3.04272461 C35.38501408 3.03768269 37.85181227 3.03084934 40.31860352 3.0222168 C43.85563904 3.010145 47.3926352 3.00442669 50.9296875 3 C52.04008896 2.99483871 53.15049042 2.98967743 54.29454041 2.98435974 C55.82601463 2.98424644 55.82601463 2.98424644 57.38842773 2.98413086 C58.29221664 2.98191025 59.19600555 2.97968964 60.12718201 2.97740173 C62.18359375 3.09765625 62.18359375 3.09765625 63.18359375 4.09765625 C63.18359375 10.03765625 63.18359375 15.97765625 63.18359375 22.09765625 C38.92859375 21.60265625 38.92859375 21.60265625 14.18359375 21.09765625 C14.18359375 36.60765625 14.18359375 52.11765625 14.18359375 68.09765625 C7.91359375 68.09765625 1.64359375 68.09765625 -4.81640625 68.09765625 C-5.05845922 61.63872388 -5.27340162 55.17966834 -5.46337891 48.71899414 C-5.53179267 46.52181002 -5.60758084 44.32484254 -5.69091797 42.12817383 C-5.80950233 38.9685434 -5.90144963 35.80908034 -5.98828125 32.6484375 C-6.03080017 31.66805008 -6.07331909 30.68766266 -6.11712646 29.67756653 C-6.26877085 22.80844428 -6.26877085 22.80844428 -3.80566406 18.93823242 C-3.14920898 18.33084229 -2.49275391 17.72345215 -1.81640625 17.09765625 C-2.80640625 16.76765625 -3.79640625 16.43765625 -4.81640625 16.09765625 C-4.8432572 13.61841824 -4.86317172 11.13946785 -4.87890625 8.66015625 C-4.89147461 7.59958008 -4.89147461 7.59958008 -4.90429688 6.51757812 C-4.91294213 4.71072066 -4.86860636 2.90378022 -4.81640625 1.09765625 C-3.81640625 0.09765625 -3.81640625 0.09765625 0 0 Z " fill="#C62129" transform="translate(61.81640625,56.90234375)"/>
<path d="M0 0 C10.23 0 20.46 0 31 0 C31 0.66 31 1.32 31 2 C34.3 2.33 37.6 2.66 41 3 C41 4.32 41 5.64 41 7 C41.969375 6.814375 42.93875 6.62875 43.9375 6.4375 C45.4534375 6.2209375 45.4534375 6.2209375 47 6 C48 7 48 7 48 14 C34.8 14 21.6 14 8 14 C8 14.99 8 15.98 8 17 C24.83 17 41.66 17 59 17 C59 17.99 59 18.98 59 20 C59.99 20.33 60.98 20.66 62 21 C62 21.66 62 22.32 62 23 C62.99 23 63.98 23 65 23 C65 25.64 65 28.28 65 31 C64.01 30.67 63.02 30.34 62 30 C62 31.32 62 32.64 62 34 C61.34 34 60.68 34 60 34 C59.67 35.32 59.34 36.64 59 38 C57.68 38 56.36 38 55 38 C55 38.99 55 39.98 55 41 C54.01 41 53.02 41 52 41 C52 41.99 52 42.98 52 44 C50.68 44 49.36 44 48 44 C47.67 44.99 47.34 45.98 47 47 C47 45.68 47 44.36 47 43 C48.32 43 49.64 43 51 43 C51 42.01 51 41.02 51 40 C51.99 40 52.98 40 54 40 C54 39.01 54 38.02 54 37 C54.66 37 55.32 37 56 37 C55.34 36.34 54.68 35.68 54 35 C53.34 35 52.68 35 52 35 C51.67 35.99 51.34 36.98 51 38 C50.34 38 49.68 38 49 38 C49 38.66 49 39.32 49 40 C46.80564299 42.11745198 45.47610949 42.94589665 42.421875 43.29296875 C41.54015625 43.25816406 40.6584375 43.22335938 39.75 43.1875 C38.41195312 43.14689453 38.41195312 43.14689453 37.046875 43.10546875 C36.37140625 43.07066406 35.6959375 43.03585938 35 43 C36 40 36 40 39 38 C39.72965366 35.43717258 39.72965366 35.43717258 40 33 C41.32 33 42.64 33 44 33 C44 32.34 44 31.68 44 31 C32.12 31 20.24 31 8 31 C8 31.99 8 32.98 8 34 C22.85 34.495 22.85 34.495 38 35 C38 35.99 38 36.98 38 38 C36.35443434 39.03435556 34.6829392 40.02763513 33 41 C32.360625 41.85207031 31.72125 42.70414063 31.0625 43.58203125 C26.38627152 47.2741045 21.95117475 46.53960623 16.1875 46.3125 C12.495625 46.209375 8.80375 46.10625 5 46 C5 34.45 5 22.9 5 11 C18.2 11 31.4 11 45 11 C45 10.34 45 9.68 45 9 C43.9790625 8.8453125 43.9790625 8.8453125 42.9375 8.6875 C40 8 40 8 36.75 6.5625 C28.48831625 2.93995929 20.35420591 2.73525657 11.4375 2.875 C9.78137695 2.88853516 9.78137695 2.88853516 8.09179688 2.90234375 C5.3942983 2.92569872 2.69726923 2.95844946 0 3 C0 2.01 0 1.02 0 0 Z " fill="#BFBFBE" transform="translate(52,10)"/>
<path d="M0 0 C5.94479629 -0.07401579 11.88932593 -0.12853813 17.83447266 -0.16479492 C19.85795766 -0.17990526 21.8814098 -0.20039437 23.90478516 -0.22631836 C26.80900165 -0.26260328 29.71278615 -0.27970355 32.6171875 -0.29296875 C33.52556366 -0.30845261 34.43393982 -0.32393646 35.36984253 -0.33988953 C36.21056305 -0.34011612 37.05128357 -0.34034271 37.91748047 -0.34057617 C39.03000687 -0.35056892 39.03000687 -0.35056892 40.16500854 -0.36076355 C40.77055573 -0.24171158 41.37610291 -0.12265961 42 0 C44.05184856 3.07777284 44.24373768 3.57351565 44.13525391 7.01245117 C44.11508209 7.81305466 44.09491028 8.61365814 44.0741272 9.43852234 C44.02583267 10.72772331 44.02583267 10.72772331 43.9765625 12.04296875 C43.93902359 13.36836418 43.93902359 13.36836418 43.90072632 14.72053528 C43.81854151 17.54324799 43.72194628 20.36525944 43.625 23.1875 C43.56675887 25.10088279 43.50945563 27.01429438 43.453125 28.92773438 C43.31296494 33.61889306 43.15987917 38.30947363 43 43 C39.04 43 35.08 43 31 43 C31.33 42.01 31.66 41.02 32 40 C29.69 40 27.38 40 25 40 C24.67 38.68 24.34 37.36 24 36 C22.68 36 21.36 36 20 36 C20 35.34 20 34.68 20 34 C18.515 33.505 18.515 33.505 17 33 C17 32.01 17 31.02 17 30 C15.68 29.67 14.36 29.34 13 29 C13 28.01 13 27.02 13 26 C12.01 26 11.02 26 10 26 C10 25.01 10 24.02 10 23 C9.01 22.67 8.02 22.34 7 22 C6.95745644 20.00045254 6.95919217 17.99958364 7 16 C8 15 8 15 9.85766602 14.88647461 C10.64842529 14.89171143 11.43918457 14.89694824 12.25390625 14.90234375 C13.53491211 14.90717773 13.53491211 14.90717773 14.84179688 14.91210938 C15.73962891 14.92048828 16.63746094 14.92886719 17.5625 14.9375 C18.46419922 14.94201172 19.36589844 14.94652344 20.29492188 14.95117188 C22.53001314 14.96299775 24.76497437 14.9794778 27 15 C27 14.34 27 13.68 27 13 C18.09 13 9.18 13 0 13 C0 8.71 0 4.42 0 0 Z " fill="#213063" transform="translate(10,82)"/>
<path d="M0 0 C3.96 0 7.92 0 12 0 C12 0.66 12 1.32 12 2 C13.98 2 15.96 2 18 2 C18 1.34 18 0.68 18 0 C22.62 0 27.24 0 32 0 C32 4.29 32 8.58 32 13 C31.01 13 30.02 13 29 13 C29 14.98 29 16.96 29 19 C27.68 19 26.36 19 25 19 C25 20.32 25 21.64 25 23 C24.22914062 23.06058594 23.45828125 23.12117188 22.6640625 23.18359375 C21.15972656 23.30927734 21.15972656 23.30927734 19.625 23.4375 C18.12839844 23.55931641 18.12839844 23.55931641 16.6015625 23.68359375 C14.02072387 23.84965626 14.02072387 23.84965626 12 25 C12.33 26.65 12.66 28.3 13 30 C-3.53089888 41 -3.53089888 41 -10 41 C-10.04935824 35.76726669 -10.08569949 30.53466824 -10.10986328 25.30175781 C-10.11993431 23.52080933 -10.13359185 21.73987743 -10.15087891 19.95898438 C-10.17507913 17.40230217 -10.18647184 14.84583815 -10.1953125 12.2890625 C-10.20563507 11.49005524 -10.21595764 10.69104797 -10.22659302 9.86782837 C-10.22699226 7.9104278 -10.12241069 5.95356923 -10 4 C-9.34 3.34 -8.68 2.68 -8 2 C-6.68 3.32 -5.36 4.64 -4 6 C-3.67 4.68 -3.34 3.36 -3 2 C-2.34 2 -1.68 2 -1 2 C-0.67 1.34 -0.34 0.68 0 0 Z M-2 6 C-2 6.66 -2 7.32 -2 8 C-1.34 8 -0.68 8 0 8 C0 7.34 0 6.68 0 6 C-0.66 6 -1.32 6 -2 6 Z M1 9 C0.67 9.66 0.34 10.32 0 11 C0.66 11.66 1.32 12.32 2 13 C2.99 12.67 3.98 12.34 5 12 C4.67 11.01 4.34 10.02 4 9 C3.01 9 2.02 9 1 9 Z M5 13 C5.33 13.99 5.66 14.98 6 16 C6.33 15.01 6.66 14.02 7 13 C6.34 13 5.68 13 5 13 Z M8 16 C8 16.66 8 17.32 8 18 C8.99 18.33 9.98 18.66 11 19 C11.33 19.99 11.66 20.98 12 22 C12.66 22 13.32 22 14 22 C14.33 21.01 14.66 20.02 15 19 C11.94419026 16.41222792 11.94419026 16.41222792 8 16 Z " fill="#A2272D" transform="translate(92,82)"/>
<path d="M0 0 C0.66 0 1.32 0 2 0 C1.938125 0.78375 1.87625 1.5675 1.8125 2.375 C1.874375 3.24125 1.93625 4.1075 2 5 C2.99 5.66 3.98 6.32 5 7 C5 7.66 5 8.32 5 9 C5.66 9 6.32 9 7 9 C7 10.32 7 11.64 7 13 C4.69 13.33 2.38 13.66 0 14 C0.50603992 16.16874252 0.99983813 17.99967627 2 20 C4.62113708 20 6.50935112 19.68707555 9 19 C8.67 17.68 8.34 16.36 8 15 C9.875 14.375 9.875 14.375 12 14 C12.66 14.66 13.32 15.32 14 16 C13.67 16.99 13.34 17.98 13 19 C15.64 19.66 18.28 20.32 21 21 C21 21.66 21 22.32 21 23 C22.42944945 20.64561267 23.08661261 19.51967567 22.625 16.75 C22.41875 16.1725 22.2125 15.595 22 15 C23.875 14.375 23.875 14.375 26 14 C26.66 14.66 27.32 15.32 28 16 C27.625 18.625 27.625 18.625 27 21 C27.94875 20.814375 28.8975 20.62875 29.875 20.4375 C33 20 33 20 35 21 C34.505 23.475 34.505 23.475 34 26 C34.66 26 35.32 26 36 26 C36 27.65 36 29.3 36 31 C36.66 31.33 37.32 31.66 38 32 C35.59563974 35.60654039 34.05320393 35.85452932 30 37 C29.505 33.535 29.505 33.535 29 30 C28.0925 30.20625 27.185 30.4125 26.25 30.625 C22.88972103 31.0127245 21.75924185 30.80411967 19 29 C18.67 30.32 18.34 31.64 18 33 C19.485 33.495 19.485 33.495 21 34 C20.34 34.99 19.68 35.98 19 37 C17 35 15 33 13 31 C11.68 31 10.36 31 9 31 C8.67 30.34 8.34 29.68 8 29 C7.01 30.32 6.02 31.64 5 33 C5.99 33 6.98 33 8 33 C7.67 34.98 7.34 36.96 7 39 C18.88 39.33 30.76 39.66 43 40 C40 43 40 43 37.66511536 43.32279968 C36.28944649 43.28615959 36.28944649 43.28615959 34.88598633 43.2487793 C33.84513382 43.22853195 32.80428131 43.20828461 31.73188782 43.18742371 C30.60993515 43.15006607 29.48798248 43.11270844 28.33203125 43.07421875 C26.60710701 43.03455742 26.60710701 43.03455742 24.84733582 42.99409485 C21.16853634 42.90621034 17.49071042 42.79710045 13.8125 42.6875 C11.32099861 42.62425407 8.82946179 42.56238761 6.33789062 42.50195312 C0.22475901 42.35064968 -5.88770672 42.18190866 -12 42 C-12.08685287 38.70849875 -12.14033895 35.4172904 -12.1875 32.125 C-12.21263672 31.18785156 -12.23777344 30.25070313 -12.26367188 29.28515625 C-12.27333984 28.38925781 -12.28300781 27.49335937 -12.29296875 26.5703125 C-12.3086792 25.74289551 -12.32438965 24.91547852 -12.34057617 24.06298828 C-12.22818604 23.38220215 -12.1157959 22.70141602 -12 22 C-11.01 21.34 -10.02 20.68 -9 20 C-8.00278877 16.64574405 -7.90048788 13.48292433 -8 10 C-7.34 10 -6.68 10 -6 10 C-5.67 8.02 -5.34 6.04 -5 4 C-3.68 4 -2.36 4 -1 4 C-0.67 2.68 -0.34 1.36 0 0 Z M15 29 C15 29.66 15 30.32 15 31 C15.66 30.67 16.32 30.34 17 30 C16.34 29.67 15.68 29.34 15 29 Z " fill="#283669" transform="translate(18,33)"/>
<path d="M0 0 C1.52519276 0.08937803 3.04681929 0.24537146 4.5625 0.4375 C5.38878906 0.53933594 6.21507812 0.64117187 7.06640625 0.74609375 C7.70449219 0.82988281 8.34257812 0.91367187 9 1 C9 1.66 9 2.32 9 3 C7.68 3 6.36 3 5 3 C5.33 4.32 5.66 5.64 6 7 C7.32 7 8.64 7 10 7 C10.66 4.69 11.32 2.38 12 0 C14.97 0.495 14.97 0.495 18 1 C18.6875 2.8125 18.6875 2.8125 19 5 C17.6875 6.75 17.6875 6.75 16 8 C15.34 8 14.68 8 14 8 C14 9.32 14 10.64 14 12 C14.99 12.33 15.98 12.66 17 13 C17 12.34 17 11.68 17 11 C17.66 10.67 18.32 10.34 19 10 C19.33 9.01 19.66 8.02 20 7 C21.32 7 22.64 7 24 7 C24 6.34 24 5.68 24 5 C25.32 5.33 26.64 5.66 28 6 C27.01 7.485 27.01 7.485 26 9 C26.66 9.33 27.32 9.66 28 10 C27.67 10.99 27.34 11.98 27 13 C28.94999129 12.80528889 28.94999129 12.80528889 31 12 C32.28436734 10.0162233 32.28436734 10.0162233 33 8 C33.66 8 34.32 8 35 8 C35.33 7.34 35.66 6.68 36 6 C36 17.55 36 29.1 36 41 C25.44 41 14.88 41 4 41 C3.67 39.68 3.34 38.36 3 37 C3.66 36.01 4.32 35.02 5 34 C4.01 34 3.02 34 2 34 C3.75 30.125 3.75 30.125 6 29 C6.33 29.66 6.66 30.32 7 31 C7.804375 31.12375 8.60875 31.2475 9.4375 31.375 C10.7059375 31.684375 10.7059375 31.684375 12 32 C13.1875 34 13.1875 34 14 36 C14.66 36.33 15.32 36.66 16 37 C16.33 36.34 16.66 35.68 17 35 C16.34 34.67 15.68 34.34 15 34 C15.33 32.68 15.66 31.36 16 30 C19.3 30.33 22.6 30.66 26 31 C26.66 32.98 27.32 34.96 28 37 C30.475 36.505 30.475 36.505 33 36 C33 34.68 33 33.36 33 32 C33 30.33333333 33 28.66666667 33 27 C32.34 27 31.68 27 31 27 C31.33 25.35 31.66 23.7 32 22 C29.36 22 26.72 22 24 22 C24 20.35 24 18.7 24 17 C22.68 17 21.36 17 20 17 C20 17.99 20 18.98 20 20 C20.66 20.33 21.32 20.66 22 21 C20 23 20 23 18 24 C18.33 25.32 18.66 26.64 19 28 C18.34 28.33 17.68 28.66 17 29 C17 27.02 17 25.04 17 23 C16.01 22.67 15.02 22.34 14 22 C13.01 21.67 12.02 21.34 11 21 C9.8125 18.4375 9.8125 18.4375 9 16 C8.01 16.33 7.02 16.66 6 17 C6.33 18.32 6.66 19.64 7 21 C0.25 22 0.25 22 -2 22 C-2.33 22.66 -2.66 23.32 -3 24 C-3 21 -3 21 -2 20 C-2.66 19.67 -3.32 19.34 -4 19 C-3.67 17.68 -3.34 16.36 -3 15 C0.465 14.505 0.465 14.505 4 14 C4 12.68 4 11.36 4 10 C3.34 10 2.68 10 2 10 C2 9.34 2 8.68 2 8 C0.68 7.34 -0.64 6.68 -2 6 C-1.125 1.125 -1.125 1.125 0 0 Z M12 30 C12.66 30.66 13.32 31.32 14 32 C13.34 32 12.68 32 12 32 C12 31.34 12 30.68 12 30 Z " fill="#202F63" transform="translate(21,32)"/>
<path d="M0 0 C2.64 0 5.28 0 8 0 C8 4.29 8 8.58 8 13 C9.32 13.33 10.64 13.66 12 14 C12 21.92 12 29.84 12 38 C-3.84 38 -19.68 38 -36 38 C-35.67 39.65 -35.34 41.3 -35 43 C-35.66 43 -36.32 43 -37 43 C-37 41.02 -37 39.04 -37 37 C-21.82 37 -6.64 37 9 37 C8.505 35.02 8.505 35.02 8 33 C8 28.05 8 23.1 8 18 C-16.255 17.505 -16.255 17.505 -41 17 C-41 16.01 -41 15.02 -41 14 C-46.94 14.33 -52.88 14.66 -59 15 C-59 14.34 -59 13.68 -59 13 C-58.33991943 13.00636475 -57.67983887 13.01272949 -56.99975586 13.01928711 C-53.97788189 13.02802927 -50.95902143 12.98319754 -47.9375 12.9375 C-46.37999023 12.95393555 -46.37999023 12.95393555 -44.79101562 12.97070312 C-39.25710909 12.84772742 -35.89903724 12.57816023 -31.9375 8.5 C-31.42960937 7.86964844 -30.92171875 7.23929688 -30.3984375 6.58984375 C-29 5 -29 5 -26.0625 4.0625 C-25.381875 4.041875 -24.70125 4.02125 -24 4 C-24.66 4.99 -25.32 5.98 -26 7 C-26.66 7 -27.32 7 -28 7 C-28 7.66 -28 8.32 -28 9 C-26.58376784 9.05447047 -25.16691809 9.09300508 -23.75 9.125 C-22.56664063 9.15980469 -22.56664063 9.15980469 -21.359375 9.1953125 C-18.79268059 8.9828378 -17.2083933 8.28654105 -15 7 C-15 6.34 -15 5.68 -15 5 C-13.37373596 3.61767557 -11.7074998 2.28062485 -10 1 C-9.34 1.33 -8.68 1.66 -8 2 C-8 2.66 -8 3.32 -8 4 C-8.66 4 -9.32 4 -10 4 C-10 4.99 -10 5.98 -10 7 C-10.99 7 -11.98 7 -13 7 C-13 7.99 -13 8.98 -13 10 C-14.32 10 -15.64 10 -17 10 C-17 11.32 -17 12.64 -17 14 C-13.37 14 -9.74 14 -6 14 C-6.12375 13.113125 -6.2475 12.22625 -6.375 11.3125 C-6 8 -6 8 -4.6640625 6.59375 C-4.11492187 6.1709375 -3.56578125 5.748125 -3 5.3125 C-1.515 4.1678125 -1.515 4.1678125 0 3 C0 2.01 0 1.02 0 0 Z M-32 11 C-32.33 11.99 -32.66 12.98 -33 14 C-32.01 13.67 -31.02 13.34 -30 13 C-30.66 12.34 -31.32 11.68 -32 11 Z " fill="#FBFBFC" transform="translate(116,43)"/>
<path d="M0 0 C0.99 0.33 1.98 0.66 3 1 C3.74513723 3.09993221 4 4.77431099 4 7 C4.99 7.33 5.98 7.66 7 8 C7.28875 8.598125 7.5775 9.19625 7.875 9.8125 C9.34745899 12.6756147 11.49895394 14.02548995 14 16 C14 16.66 14 17.32 14 18 C14.5775 18.2475 15.155 18.495 15.75 18.75 C18.41076851 20.22820473 20.13556544 21.58314039 22 24 C21.98046875 26.375 21.98046875 26.375 21 29 C18.375 31.16796875 18.375 31.16796875 15 33.1875 C13.906875 33.86167969 12.81375 34.53585938 11.6875 35.23046875 C7.67490469 37.38408983 3.45427329 38.21532572 -1 39 C-1.02467917 33.76725612 -1.04285003 28.53454597 -1.05493164 23.30175781 C-1.05996711 21.52082733 -1.06679581 19.739901 -1.07543945 17.95898438 C-1.08753942 15.40233335 -1.09323609 12.84573688 -1.09765625 10.2890625 C-1.10281754 9.49005524 -1.10797882 8.69104797 -1.11329651 7.86782837 C-1.11387171 2.22774341 -1.11387171 2.22774341 0 0 Z " fill="#233264" transform="translate(83,84)"/>
<path d="M0 0 C13.86 0 27.72 0 42 0 C35.25 7.875 35.25 7.875 31.625 11.4375 C30.93664062 12.11683594 30.24828125 12.79617187 29.5390625 13.49609375 C29.03117187 13.99238281 28.52328125 14.48867187 28 15 C27.67 14.34 27.34 13.68 27 13 C18.09 13 9.18 13 0 13 C0 8.71 0 4.42 0 0 Z " fill="#C71F28" transform="translate(10,82)"/>
<path d="M0 0 C16.5 0 33 0 50 0 C42.44061224 8.81928572 42.44061224 8.81928572 39.0827179 9.24050903 C38.36101913 9.23606781 37.63932037 9.23162659 36.89575195 9.22705078 C36.07512772 9.22689972 35.25450348 9.22674866 34.40901184 9.22659302 C33.0870002 9.21110916 33.0870002 9.21110916 31.73828125 9.1953125 C30.83248825 9.1924826 29.92669525 9.18965271 28.99345398 9.18673706 C26.09966842 9.17553964 23.20619206 9.15043589 20.3125 9.125 C18.35091593 9.11496963 16.389327 9.10584388 14.42773438 9.09765625 C9.6183704 9.07560173 4.80923763 9.04107489 0 9 C0 6.03 0 3.06 0 0 Z " fill="#C71D26" transform="translate(57,29)"/>
<path d="M0 0 C1.32 0.66 2.64 1.32 4 2 C3.67 2.99 3.34 3.98 3 5 C5.64 5.66 8.28 6.32 11 7 C11 7.66 11 8.32 11 9 C12.42944945 6.64561267 13.08661261 5.51967567 12.625 2.75 C12.41875 2.1725 12.2125 1.595 12 1 C13.875 0.375 13.875 0.375 16 0 C16.66 0.66 17.32 1.32 18 2 C17.625 4.625 17.625 4.625 17 7 C17.94875 6.814375 18.8975 6.62875 19.875 6.4375 C23 6 23 6 25 7 C24.67 8.65 24.34 10.3 24 12 C24.66 12 25.32 12 26 12 C26 13.65 26 15.3 26 17 C26.66 17.33 27.32 17.66 28 18 C25.59563974 21.60654039 24.05320393 21.85452932 20 23 C19.67 20.69 19.34 18.38 19 16 C18.0925 16.20625 17.185 16.4125 16.25 16.625 C12.88972103 17.0127245 11.75924185 16.80411967 9 15 C8.67 16.32 8.34 17.64 8 19 C8.99 19.33 9.98 19.66 11 20 C10.34 20.99 9.68 21.98 9 23 C7 21 5 19 3 17 C1.68 17 0.36 17 -1 17 C-2.71690524 15.09232751 -3.85509764 13.28980473 -5 11 C-5.99 11 -6.98 11 -8 11 C-8.33 9.68 -8.66 8.36 -9 7 C-5.535 6.505 -5.535 6.505 -2 6 C-2 4.68 -2 3.36 -2 2 C-1.34 1.34 -0.68 0.68 0 0 Z M5 15 C5 15.66 5 16.32 5 17 C5.66 16.67 6.32 16.34 7 16 C6.34 15.67 5.68 15.34 5 15 Z " fill="#59648C" transform="translate(28,47)"/>
<path d="M0 0 C10.23 0 20.46 0 31 0 C31 0.66 31 1.32 31 2 C34.3 2.33 37.6 2.66 41 3 C41 4.32 41 5.64 41 7 C41.969375 6.814375 42.93875 6.62875 43.9375 6.4375 C45.4534375 6.2209375 45.4534375 6.2209375 47 6 C48 7 48 7 48 14 C34.8 14 21.6 14 8 14 C8 14.99 8 15.98 8 17 C8.57185028 16.99555878 9.14370056 16.99111755 9.73287964 16.98654175 C15.66971342 16.94239049 21.60650078 16.91216788 27.54345703 16.89013672 C29.76092421 16.88006175 31.97837805 16.86640141 34.19580078 16.84912109 C37.37796312 16.82493837 40.55995024 16.81353203 43.7421875 16.8046875 C45.23599442 16.78920364 45.23599442 16.78920364 46.75997925 16.77340698 C48.14118454 16.77318039 48.14118454 16.77318039 49.55029297 16.77294922 C50.3630368 16.768508 51.17578064 16.76406677 52.01315308 16.75949097 C54 17 54 17 56 19 C39.17 19 22.34 19 5 19 C5 16.36 5 13.72 5 11 C18.2 11 31.4 11 45 11 C45 10.34 45 9.68 45 9 C43.9790625 8.8453125 43.9790625 8.8453125 42.9375 8.6875 C40 8 40 8 36.75 6.5625 C28.48831625 2.93995929 20.35420591 2.73525657 11.4375 2.875 C9.78137695 2.88853516 9.78137695 2.88853516 8.09179688 2.90234375 C5.3942983 2.92569872 2.69726923 2.95844946 0 3 C0 2.01 0 1.02 0 0 Z " fill="#CBCCCC" transform="translate(52,10)"/>
<path d="M0 0 C9.9 0 19.8 0 30 0 C30 0.99 30 1.98 30 3 C28.35443434 4.03435556 26.6829392 5.02763513 25 6 C24.360625 6.85207031 23.72125 7.70414063 23.0625 8.58203125 C18.38695644 12.27356373 13.95804076 11.5416296 8.1875 11.3125 C6.57584961 11.27866211 6.57584961 11.27866211 4.93164062 11.24414062 C2.2863315 11.18535598 -0.35611413 11.10323957 -3 11 C-3 8.03 -3 5.06 -3 2 C-2.01 2 -1.02 2 0 2 C0 1.34 0 0.68 0 0 Z " fill="#D56D74" transform="translate(60,45)"/>
<path d="M0 0 C14.47282922 -0.56084161 26.91611481 0.09186697 40 7 C40 7.66 40 8.32 40 9 C26.8 9 13.6 9 0 9 C0 6.03 0 3.06 0 0 Z " fill="#CA3037" transform="translate(57,12)"/>
<path d="M0 0 C1.5 1.1875 1.5 1.1875 3 3 C3.1875 5.6875 3.1875 5.6875 3 8 C3.99 8.33 4.98 8.66 6 9 C6.33 10.65 6.66 12.3 7 14 C4.36 14 1.72 14 -1 14 C-1.33 14.66 -1.66 15.32 -2 16 C-1.01 16 -0.02 16 1 16 C0.5359375 16.8971875 0.5359375 16.8971875 0.0625 17.8125 C-1.10209704 20.08956772 -1.10209704 20.08956772 -2 23 C2.62 22.67 7.24 22.34 12 22 C11.01 20.35 10.02 18.7 9 17 C10.8125 15.9375 10.8125 15.9375 13 15 C13.99 15.33 14.98 15.66 16 16 C15.67 17.98 15.34 19.96 15 22 C26.88 22.33 38.76 22.66 51 23 C48 26 48 26 45.66511536 26.32279968 C44.74800278 26.29837296 43.8308902 26.27394623 42.88598633 26.2487793 C41.84513382 26.22853195 40.80428131 26.20828461 39.73188782 26.18742371 C38.60993515 26.15006607 37.48798248 26.11270844 36.33203125 26.07421875 C34.60710701 26.03455742 34.60710701 26.03455742 32.84733582 25.99409485 C29.16853634 25.90621034 25.49071042 25.79710045 21.8125 25.6875 C19.32099861 25.62425407 16.82946179 25.56238761 14.33789062 25.50195312 C8.22475901 25.35064968 2.11229328 25.18190866 -4 25 C-4.08685287 21.70849875 -4.14033895 18.4172904 -4.1875 15.125 C-4.21263672 14.18785156 -4.23777344 13.25070313 -4.26367188 12.28515625 C-4.27333984 11.38925781 -4.28300781 10.49335937 -4.29296875 9.5703125 C-4.3086792 8.74289551 -4.32438965 7.91547852 -4.34057617 7.06298828 C-4.22818604 6.38220215 -4.1157959 5.70141602 -4 5 C-3.01 4.34 -2.02 3.68 -1 3 C-0.67 2.01 -0.34 1.02 0 0 Z " fill="#34354A" transform="translate(10,50)"/>
<path d="M0 0 C1.65 1.65 3.3 3.3 5 5 C3.71480435 7.86697492 2.42870746 9.97607712 0 12 C-0.66 12 -1.32 12 -2 12 C-2.33 12.99 -2.66 13.98 -3 15 C-3.66 15 -4.32 15 -5 15 C-5.33 15.99 -5.66 16.98 -6 18 C-6.66 18 -7.32 18 -8 18 C-8 18.66 -8 19.32 -8 20 C-10.19435701 22.11745198 -11.52389051 22.94589665 -14.578125 23.29296875 C-15.45984375 23.25816406 -16.3415625 23.22335938 -17.25 23.1875 C-18.14203125 23.16042969 -19.0340625 23.13335937 -19.953125 23.10546875 C-20.62859375 23.07066406 -21.3040625 23.03585938 -22 23 C-21 20 -21 20 -18 18 C-17.27034634 15.43717258 -17.27034634 15.43717258 -17 13 C-16.13117188 12.78601562 -15.26234375 12.57203125 -14.3671875 12.3515625 C-10.39826417 10.75846799 -7.98487166 8.43692781 -5.125 5.375 C-4.37863281 4.6015625 -4.37863281 4.6015625 -3.6171875 3.8125 C-2.4020666 2.55064368 -1.19968875 1.27653714 0 0 Z " fill="#CA3038" transform="translate(109,30)"/>
<path d="M0 0 C0.66 0 1.32 0 2 0 C2.07588365 6.79924392 2.12852926 13.59837922 2.16479492 20.39794922 C2.17990853 22.71244385 2.20039996 25.02690974 2.22631836 27.34130859 C2.26258841 30.66250696 2.27970044 33.98332768 2.29296875 37.3046875 C2.30845261 38.34430634 2.32393646 39.38392517 2.33988953 40.45504761 C2.34011612 41.41589264 2.34034271 42.37673767 2.34057617 43.36669922 C2.34723801 44.21497284 2.35389984 45.06324646 2.36076355 45.93722534 C2.24171158 46.61794098 2.12265961 47.29865662 2 48 C1.01 48.66 0.02 49.32 -1 50 C-1 35.81 -1 21.62 -1 7 C-3.68327394 6.10557535 -5.34149739 5.85418313 -8.10424805 5.79467773 C-8.92487228 5.77473251 -9.74549652 5.75478729 -10.59098816 5.73423767 C-11.9129998 5.70916893 -11.9129998 5.70916893 -13.26171875 5.68359375 C-14.16751175 5.66281265 -15.07330475 5.64203156 -16.00654602 5.62062073 C-18.90012016 5.55523442 -21.79378507 5.49629096 -24.6875 5.4375 C-26.64909793 5.3943044 -28.61068668 5.35068977 -30.57226562 5.30664062 C-35.38141739 5.19956418 -40.19066046 5.09826586 -45 5 C-44.67 4.34 -44.34 3.68 -44 3 C-42.73816895 3.01571045 -41.47633789 3.0314209 -40.17626953 3.04760742 C-35.50608677 3.10180307 -30.83593193 3.13631221 -26.16552734 3.16479492 C-24.14204234 3.17990526 -22.1185902 3.20039437 -20.09521484 3.22631836 C-17.19099835 3.26260328 -14.28721385 3.27970355 -11.3828125 3.29296875 C-10.47443634 3.30845261 -9.56606018 3.32393646 -8.63015747 3.33988953 C-7.36907669 3.34022942 -7.36907669 3.34022942 -6.08251953 3.34057617 C-5.34083527 3.34723801 -4.599151 3.35389984 -3.83499146 3.36076355 C-3.22944427 3.24171158 -2.62389709 3.12265961 -2 3 C-1.34 2.01 -0.68 1.02 0 0 Z " fill="#FDFDFC" transform="translate(55,77)"/>
<path d="M0 0 C3.3 0 6.6 0 10 0 C6 2 6 2 4 2 C4 2.99 4 3.98 4 5 C3.01 5 2.02 5 1 5 C0.34 5.66 -0.32 6.32 -1 7 C-1 6.34 -1 5.68 -1 5 C-1.99 5.495 -1.99 5.495 -3 6 C-3.65772428 9.02934491 -3.65772428 9.02934491 -4 12 C-3.34 12.33 -2.68 12.66 -2 13 C-4 16 -4 16 -6.125 16.6875 C-6.74375 16.790625 -7.3625 16.89375 -8 17 C-8 17.99 -8 18.98 -8 20 C-8.95211112 22.02323613 -9.94773272 24.02699884 -11 26 C-12.32 26 -13.64 26 -15 26 C-15.33 24.68 -15.66 23.36 -16 22 C-14.68 22 -13.36 22 -12 22 C-12 21.34 -12 20.68 -12 20 C-12.556875 20.185625 -13.11375 20.37125 -13.6875 20.5625 C-16.399133 21.07551165 -18.34371039 20.6640724 -21 20 C-21.33 19.01 -21.66 18.02 -22 17 C-21.34 17 -20.68 17 -20 17 C-19.67 16.01 -19.34 15.02 -19 14 C-17.66666667 13.66666667 -16.33333333 13.33333333 -15 13 C-14.67 12.01 -14.34 11.02 -14 10 C-13.34 9.67 -12.68 9.34 -12 9 C-11.34 8.34 -10.68 7.68 -10 7 C-9.360625 6.855625 -8.72125 6.71125 -8.0625 6.5625 C-5.62027406 5.89643838 -4.63822323 4.88395671 -3 3 C-2.34 3.33 -1.68 3.66 -1 4 C-0.67 2.68 -0.34 1.36 0 0 Z " fill="#2D3B6C" transform="translate(42,13)"/>
<path d="M0 0 C3.63 0 7.26 0 11 0 C11 0.66 11 1.32 11 2 C6.545 2.495 6.545 2.495 2 3 C2 3.66 2 4.32 2 5 C2.5887793 5.26353271 3.17755859 5.52706543 3.78417969 5.79858398 C6.09207194 7.04992133 7.60888376 8.36501668 9.453125 10.22265625 C10.071875 10.84333984 10.690625 11.46402344 11.328125 12.10351562 C11.96234375 12.74998047 12.5965625 13.39644531 13.25 14.0625 C13.8996875 14.71283203 14.549375 15.36316406 15.21875 16.03320312 C20 20.85965402 20 20.85965402 20 22 C18.02 22 16.04 22 14 22 C13.7525 21.38125 13.505 20.7625 13.25 20.125 C11.79371361 17.64931313 10.62187494 17.04874998 8 16 C8 16.66 8 17.32 8 18 C8.99 18.33 9.98 18.66 11 19 C10.34 19 9.68 19 9 19 C9 19.66 9 20.32 9 21 C9.66 21 10.32 21 11 21 C10.67 21.99 10.34 22.98 10 24 C8.2925002 22.71937515 6.62626404 21.38232443 5 20 C5 19.34 5 18.68 5 18 C4.01 17.67 3.02 17.34 2 17 C2 16.34 2 15.68 2 15 C1.443125 14.79375 0.88625 14.5875 0.3125 14.375 C-2.92501302 12.44999226 -4.68231141 9.96149098 -7 7 C-5.68 6.34 -4.36 5.68 -3 5 C-3 4.01 -3 3.02 -3 2 C-2.34 2 -1.68 2 -1 2 C-0.67 1.34 -0.34 0.68 0 0 Z M-2 6 C-2 6.66 -2 7.32 -2 8 C-1.34 8 -0.68 8 0 8 C0 7.34 0 6.68 0 6 C-0.66 6 -1.32 6 -2 6 Z M1 9 C0.67 9.66 0.34 10.32 0 11 C0.66 11.66 1.32 12.32 2 13 C2.99 12.67 3.98 12.34 5 12 C4.67 11.01 4.34 10.02 4 9 C3.01 9 2.02 9 1 9 Z M5 13 C5.33 13.99 5.66 14.98 6 16 C6.33 15.01 6.66 14.02 7 13 C6.34 13 5.68 13 5 13 Z " fill="#C3BFBF" transform="translate(92,82)"/>
<path d="M0 0 C4.29 0 8.58 0 13 0 C13 3.96 13 7.92 13 12 C12.01 12 11.02 12 10 12 C10 13.98 10 15.96 10 18 C8.68 18 7.36 18 6 18 C6 16.35 6 14.7 6 13 C5.01 12.67 4.02 12.34 3 12 C3 11.34 3 10.68 3 10 C2.01 9.67 1.02 9.34 0 9 C0 8.34 0 7.68 0 7 C-0.61875 6.731875 -1.2375 6.46375 -1.875 6.1875 C-4 5 -4 5 -6 2 C-4.02 2 -2.04 2 0 2 C0 1.34 0 0.68 0 0 Z " fill="#FAF7F7" transform="translate(110,82)"/>
<path d="M0 0 C1.32 0 2.64 0 4 0 C4 7.92 4 15.84 4 24 C-11.84 24 -27.68 24 -44 24 C-43.67 25.65 -43.34 27.3 -43 29 C-43.66 29 -44.32 29 -45 29 C-45 27.02 -45 25.04 -45 23 C-29.82 23 -14.64 23 1 23 C0.505 21.02 0.505 21.02 0 19 C0 14.05 0 9.1 0 4 C-14.85 3.67 -29.7 3.34 -45 3 C-45 2.67 -45 2.34 -45 2 C-44.45098526 1.98969254 -43.90197052 1.97938507 -43.33631897 1.96876526 C-37.64278719 1.86092053 -31.94942079 1.74630551 -26.25610352 1.62768555 C-24.12885993 1.58426577 -22.0015799 1.54259607 -19.87426758 1.50268555 C-16.82361849 1.44515293 -13.77315411 1.38141033 -10.72265625 1.31640625 C-9.76537125 1.29969376 -8.80808624 1.28298126 -7.8217926 1.26576233 C-6.50053627 1.2358445 -6.50053627 1.2358445 -5.15258789 1.20532227 C-4.37315323 1.18977798 -3.59371857 1.1742337 -2.79066467 1.15821838 C-0.97706647 1.19110881 -0.97706647 1.19110881 0 0 Z " fill="#8D8B89" transform="translate(124,57)"/>
<path d="M0 0 C2.125 0.9375 2.125 0.9375 4 2 C3.67 3.65 3.34 5.3 3 7 C3.94875 6.814375 4.8975 6.62875 5.875 6.4375 C9 6 9 6 11 7 C10.67 8.65 10.34 10.3 10 12 C10.66 12 11.32 12 12 12 C12 13.65 12 15.3 12 17 C12.66 17.33 13.32 17.66 14 18 C11.59563974 21.60654039 10.05320393 21.85452932 6 23 C5.67 20.69 5.34 18.38 5 16 C4.34 16 3.68 16 3 16 C2.67 15.01 2.34 14.02 2 13 C0.68 13 -0.64 13 -2 13 C-2.625 11.25 -2.625 11.25 -3 9 C-2.33333333 7.66666667 -1.66666667 6.33333333 -1 5 C-1.29805007 2.80252869 -1.29805007 2.80252869 -2 1 C-1.34 0.67 -0.68 0.34 0 0 Z " fill="#4E5B84" transform="translate(42,47)"/>
<path d="M0 0 C0.99 0.33 1.98 0.66 3 1 C2.67 14.2 2.34 27.4 2 41 C-1.96 41 -5.92 41 -10 41 C-9.67 40.01 -9.34 39.02 -9 38 C-11.31 38 -13.62 38 -16 38 C-16.33 36.68 -16.66 35.36 -17 34 C-18.32 34 -19.64 34 -21 34 C-21 33.34 -21 32.68 -21 32 C-21.99 31.67 -22.98 31.34 -24 31 C-24 30.01 -24 29.02 -24 28 C-19.55885535 29.64574332 -15.85161365 31.90069381 -11.890625 34.46484375 C-8.12107777 36.56911423 -8.12107777 36.56911423 0 39 C0 26.13 0 13.26 0 0 Z " fill="#8F8F8F" transform="translate(51,84)"/>
<path d="M0 0 C0.74886475 0.00523682 1.49772949 0.01047363 2.26928711 0.01586914 C3.07817383 0.0190918 3.88706055 0.02231445 4.72045898 0.02563477 C5.5705957 0.03401367 6.42073242 0.04239258 7.29663086 0.05102539 C8.15063477 0.05553711 9.00463867 0.06004883 9.88452148 0.06469727 C12.00108749 0.07652166 14.11761771 0.0944577 16.23413086 0.11352539 C14.87322379 4.1962466 12.31819994 5.73078342 9.04663086 8.39477539 C6.9833418 10.08123663 6.9833418 10.08123663 6.23413086 13.11352539 C5.24413086 13.11352539 4.25413086 13.11352539 3.23413086 13.11352539 C3.23413086 12.45352539 3.23413086 11.79352539 3.23413086 11.11352539 C2.24413086 11.11352539 1.25413086 11.11352539 0.23413086 11.11352539 C0.23413086 10.12352539 0.23413086 9.13352539 0.23413086 8.11352539 C-0.75586914 7.78352539 -1.74586914 7.45352539 -2.76586914 7.11352539 C-2.8084127 5.11397793 -2.80667697 3.11310903 -2.76586914 1.11352539 C-1.76586914 0.11352539 -1.76586914 0.11352539 0 0 Z " fill="#C03D43" transform="translate(19.765869140625,96.886474609375)"/>
<path d="M0 0 C8.25 0 16.5 0 25 0 C24 4 24 4 22 6 C19.66162109 6.22705078 19.66162109 6.22705078 16.7734375 6.1953125 C15.2265625 6.18564453 15.2265625 6.18564453 13.6484375 6.17578125 C12.56820312 6.15902344 11.48796875 6.14226563 10.375 6.125 C9.28703125 6.11597656 8.1990625 6.10695313 7.078125 6.09765625 C4.38519848 6.07403409 1.69270745 6.04109556 -1 6 C-0.67 4.02 -0.34 2.04 0 0 Z " fill="#C92A32" transform="translate(58,50)"/>
<path d="M0 0 C1 2 2 4 3 6 C12.9 6.33 22.8 6.66 33 7 C31.35 8.98 29.7 10.96 28 13 C27.67 12.34 27.34 11.68 27 11 C18.09 11 9.18 11 0 11 C0 7.37 0 3.74 0 0 Z " fill="#CCCCCA" transform="translate(10,84)"/>
<path d="M0 0 C0.66 0 1.32 0 2 0 C1.938125 0.78375 1.87625 1.5675 1.8125 2.375 C1.874375 3.24125 1.93625 4.1075 2 5 C2.99 5.66 3.98 6.32 5 7 C5 7.66 5 8.32 5 9 C5.66 9 6.32 9 7 9 C7 10.32 7 11.64 7 13 C4.69 13.33 2.38 13.66 0 14 C-0.33 15.32 -0.66 16.64 -1 18 C-1.99 18 -2.98 18 -4 18 C-4 17.34 -4 16.68 -4 16 C-5.32 15.67 -6.64 15.34 -8 15 C-8 13.35 -8 11.7 -8 10 C-7.34 10 -6.68 10 -6 10 C-5.67 8.02 -5.34 6.04 -5 4 C-3.68 4 -2.36 4 -1 4 C-0.67 2.68 -0.34 1.36 0 0 Z " fill="#58638A" transform="translate(18,33)"/>
<path d="M0 0 C0 5.28 0 10.56 0 16 C-0.66 16 -1.32 16 -2 16 C-2.33 16.66 -2.66 17.32 -3 18 C-4.25541557 14.23375329 -3.37061958 12.62811066 -2 9 C-2.99 8.67 -3.98 8.34 -5 8 C-5.6875 5.9375 -5.6875 5.9375 -6 4 C-6.99 4.33 -7.98 4.66 -9 5 C-8.16666667 7.16666667 -8.16666667 7.16666667 -6 8 C-6.99 8.33 -7.98 8.66 -9 9 C-9.33 9.66 -9.66 10.32 -10 11 C-11.65 10.67 -13.3 10.34 -15 10 C-15.33 11.32 -15.66 12.64 -16 14 C-17.32 13.67 -18.64 13.34 -20 13 C-19.67 12.67 -19.34 12.34 -19 12 C-18.95919217 10.00041636 -18.95745644 7.99954746 -19 6 C-17.02253397 5.26919734 -15.01927511 4.60578253 -13 4 C-12.34 4.33 -11.68 4.66 -11 5 C-11 4.01 -11 3.02 -11 2 C-6.9402698 0.48940272 -4.45389333 0 0 0 Z " fill="#202F63" transform="translate(57,13)"/>
<path d="M0 0 C2.64 0 5.28 0 8 0 C8 4.29 8 8.58 8 13 C7.01 12.67 6.02 12.34 5 12 C3.10787263 11.77820215 1.21115528 11.59385985 -0.6875 11.4375 C-1.68136719 11.35371094 -2.67523438 11.26992188 -3.69921875 11.18359375 C-4.45847656 11.12300781 -5.21773438 11.06242187 -6 11 C-5.22757868 6.74724352 -3.33776178 5.65309269 0 3 C0 2.01 0 1.02 0 0 Z " fill="#5D5F68" transform="translate(116,43)"/>
<path d="M0 0 C0.33 0.99 0.66 1.98 1 3 C1.66 3.33 2.32 3.66 3 4 C2.34 4.66 1.68 5.32 1 6 C1.66 6 2.32 6 3 6 C3.99 7.98 4.98 9.96 6 12 C1.05 12 -3.9 12 -9 12 C-8 8 -8 8 -6 5 C-6.99 5 -7.98 5 -9 5 C-8.67 4.01 -8.34 3.02 -8 2 C-5.69 2 -3.38 2 -1 2 C-0.67 1.34 -0.34 0.68 0 0 Z " fill="#203063" transform="translate(17,61)"/>
<path d="M0 0 C0.66 0 1.32 0 2 0 C2 0.99 2 1.98 2 3 C2.99 3.33 3.98 3.66 5 4 C5 4.66 5 5.32 5 6 C5.99 6 6.98 6 8 6 C8 8.64 8 11.28 8 14 C7.01 13.67 6.02 13.34 5 13 C5 14.32 5 15.64 5 17 C4.34 17 3.68 17 3 17 C2.67 18.32 2.34 19.64 2 21 C0.68 21 -0.64 21 -2 21 C-2 21.99 -2 22.98 -2 24 C-2.99 24 -3.98 24 -5 24 C-5 24.99 -5 25.98 -5 27 C-6.32 27 -7.64 27 -9 27 C-9.33 27.99 -9.66 28.98 -10 30 C-10 28.68 -10 27.36 -10 26 C-8.68 26 -7.36 26 -6 26 C-6 25.01 -6 24.02 -6 23 C-5.01 23 -4.02 23 -3 23 C-3 22.01 -3 21.02 -3 20 C-2.34 20 -1.68 20 -1 20 C-1.33 18.35 -1.66 16.7 -2 15 C-0.02 13.35 1.96 11.7 4 10 C3.29660434 7.49034386 3.29660434 7.49034386 2 5 C-0.04105639 4.11306697 -0.04105639 4.11306697 -2 4 C-1.34 2.68 -0.68 1.36 0 0 Z " fill="#8A8A8A" transform="translate(109,27)"/>
<path d="M0 0 C10.23 0 20.46 0 31 0 C31 0.66 31 1.32 31 2 C34.3 2.33 37.6 2.66 41 3 C41 4.65 41 6.3 41 8 C40.10796875 7.72285156 39.2159375 7.44570313 38.296875 7.16015625 C36.54117188 6.61681641 36.54117188 6.61681641 34.75 6.0625 C33.58984375 5.70285156 32.4296875 5.34320312 31.234375 4.97265625 C26.73324734 3.61905626 23.08799648 2.87719151 18.359375 2.90234375 C16.75449219 2.90717773 16.75449219 2.90717773 15.1171875 2.91210938 C14.00601563 2.92048828 12.89484375 2.92886719 11.75 2.9375 C10.62335937 2.94201172 9.49671875 2.94652344 8.3359375 2.95117188 C5.55723783 2.96294603 2.77864591 2.9793916 0 3 C0 2.01 0 1.02 0 0 Z " fill="#D3D0D0" transform="translate(52,10)"/>
<path d="M0 0 C0.99 0.66 1.98 1.32 3 2 C2.34 2 1.68 2 1 2 C1.01160156 3.05960938 1.02320313 4.11921875 1.03515625 5.2109375 C1.04453476 6.59895658 1.05363489 7.98697755 1.0625 9.375 C1.07087891 10.07367188 1.07925781 10.77234375 1.08789062 11.4921875 C1.11328125 16.7734375 1.11328125 16.7734375 0 19 C-1.32 19 -2.64 19 -4 19 C-4.33 17.68 -4.66 16.36 -5 15 C-3.68 15 -2.36 15 -1 15 C-1 14.34 -1 13.68 -1 13 C-1.556875 13.185625 -2.11375 13.37125 -2.6875 13.5625 C-5.399133 14.07551165 -7.34371039 13.6640724 -10 13 C-10.33 12.01 -10.66 11.02 -11 10 C-10.34 10 -9.68 10 -9 10 C-8.67 9.01 -8.34 8.02 -8 7 C-6.66666667 6.66666667 -5.33333333 6.33333333 -4 6 C-3.67 5.01 -3.34 4.02 -3 3 C-2.34 2.67 -1.68 2.34 -1 2 C-0.67 1.34 -0.34 0.68 0 0 Z " fill="#556188" transform="translate(31,20)"/>
<path d="M0 0 C2.66666667 1.33333333 5.33333333 2.66666667 8 4 C8 6.64 8 9.28 8 12 C5.03 12 2.06 12 -1 12 C-1.33 10.68 -1.66 9.36 -2 8 C-1.34 7.01 -0.68 6.02 0 5 C-0.99 5 -1.98 5 -3 5 C-1.125 1.125 -1.125 1.125 0 0 Z M7 1 C7.66 1.66 8.32 2.32 9 3 C8.34 3 7.68 3 7 3 C7 2.34 7 1.68 7 1 Z " fill="#203065" transform="translate(26,61)"/>
<path d="M0 0 C3.73584906 1.47169811 3.73584906 1.47169811 5 4 C5.99 5.485 5.99 5.485 7 7 C6.34 7 5.68 7 5 7 C5 8.65 5 10.3 5 12 C1.19402954 13.26865682 -0.28355967 12.28937726 -4 11 C-5.32 11 -6.64 11 -8 11 C-8.33 9.68 -8.66 8.36 -9 7 C-6.10765685 6.17361624 -4.11257569 6 -1 6 C-1 4.27917076 -1.5722028 2.65771414 -2 1 C-1.34 0.67 -0.68 0.34 0 0 Z " fill="#233166" transform="translate(49,16)"/>
<path d="M0 0 C1.62490954 -0.02698189 3.24994633 -0.04638757 4.875 -0.0625 C5.77992187 -0.07410156 6.68484375 -0.08570312 7.6171875 -0.09765625 C10 0 10 0 12 1 C11.125 6.75 11.125 6.75 10 9 C8.68 8.67 7.36 8.34 6 8 C6 7.34 6 6.68 6 6 C5.38125 5.7525 4.7625 5.505 4.125 5.25 C1.62519797 3.77952822 1.16683978 2.58596924 0 0 Z " fill="#2A396A" transform="translate(110,83)"/>
<path d="M0 0 C1.5 1.1875 1.5 1.1875 3 3 C3.1875 5.6875 3.1875 5.6875 3 8 C3.99 8.33 4.98 8.66 6 9 C6.33 10.65 6.66 12.3 7 14 C4.36 14 1.72 14 -1 14 C-2.04449911 10.86650268 -1.93423645 10.01031744 -1 7 C-1.66 6.67 -2.32 6.34 -3 6 C-2 3 -2 3 0 0 Z " fill="#6A7597" transform="translate(10,50)"/>
<path d="M0 0 C0.74886475 0.00523682 1.49772949 0.01047363 2.26928711 0.01586914 C3.07817383 0.0190918 3.88706055 0.02231445 4.72045898 0.02563477 C5.5705957 0.03401367 6.42073242 0.04239258 7.29663086 0.05102539 C8.15063477 0.05553711 9.00463867 0.06004883 9.88452148 0.06469727 C12.00108749 0.07652166 14.11761771 0.0944577 16.23413086 0.11352539 C15.90413086 1.10352539 15.57413086 2.09352539 15.23413086 3.11352539 C7.31413086 3.60852539 7.31413086 3.60852539 -0.76586914 4.11352539 C-0.76586914 5.10352539 -0.76586914 6.09352539 -0.76586914 7.11352539 C-1.42586914 6.78352539 -2.08586914 6.45352539 -2.76586914 6.11352539 C-2.80859014 4.44740634 -2.80650746 2.77969654 -2.76586914 1.11352539 C-1.76586914 0.11352539 -1.76586914 0.11352539 0 0 Z " fill="#FBFCFC" transform="translate(19.765869140625,96.886474609375)"/>
<path d="M0 0 C1.58206057 0.00667536 3.16410534 0.0186375 4.74609375 0.03515625 C5.55240234 0.03966797 6.35871094 0.04417969 7.18945312 0.04882812 C9.18753131 0.06065107 11.18557158 0.07858711 13.18359375 0.09765625 C13.18359375 0.42765625 13.18359375 0.75765625 13.18359375 1.09765625 C8.23359375 1.09765625 3.28359375 1.09765625 -1.81640625 1.09765625 C-1.81640625 2.74765625 -1.81640625 4.39765625 -1.81640625 6.09765625 C2.14359375 6.09765625 6.10359375 6.09765625 10.18359375 6.09765625 C9.85359375 6.75765625 9.52359375 7.41765625 9.18359375 8.09765625 C4.56359375 8.09765625 -0.05640625 8.09765625 -4.81640625 8.09765625 C-4.81640625 0.12324479 -4.81640625 0.12324479 0 0 Z " fill="#A19696" transform="translate(61.81640625,56.90234375)"/>
<path d="M0 0 C3.63 0 7.26 0 11 0 C11 0.66 11 1.32 11 2 C6.545 2.495 6.545 2.495 2 3 C1.67 3.99 1.34 4.98 1 6 C0.01 6 -0.98 6 -2 6 C-2 6.66 -2 7.32 -2 8 C-0.02 8 1.96 8 4 8 C1.08235 9.9451 -0.62537285 10.45276317 -4 11 C-4.99 9.68 -5.98 8.36 -7 7 C-5.68 6.34 -4.36 5.68 -3 5 C-3 4.01 -3 3.02 -3 2 C-2.34 2 -1.68 2 -1 2 C-0.67 1.34 -0.34 0.68 0 0 Z " fill="#BCBABA" transform="translate(92,82)"/>
<path d="M0 0 C0.53109375 0.20496094 1.0621875 0.40992187 1.609375 0.62109375 C2.31578125 0.89050781 3.0221875 1.15992187 3.75 1.4375 C4.44609375 1.70433594 5.1421875 1.97117187 5.859375 2.24609375 C7.89059003 2.96146693 9.9035291 3.51365652 12 4 C12.33 3.01 12.66 2.02 13 1 C13 1.66 13 2.32 13 3 C14.98 2.67 16.96 2.34 19 2 C19.33 2.99 19.66 3.98 20 5 C20.99 4.67 21.98 4.34 23 4 C23 4.66 23 5.32 23 6 C15.74 6 8.48 6 1 6 C0.67 4.02 0.34 2.04 0 0 Z " fill="#2A386C" transform="translate(33,67)"/>
<path d="M0 0 C1.76462683 3.08809695 2 4.23312136 2 8 C-1.63 8 -5.26 8 -9 8 C-3.95652174 0 -3.95652174 0 0 0 Z " fill="#2B3A6C" transform="translate(120,45)"/>
<path d="M0 0 C1.98 0 3.96 0 6 0 C6.33 1.32 6.66 2.64 7 4 C5.68 4.33 4.36 4.66 3 5 C3 5.99 3 6.98 3 8 C2.01 8 1.02 8 0 8 C0 8.66 0 9.32 0 10 C-1.32 9.67 -2.64 9.34 -4 9 C-3.67 7.68 -3.34 6.36 -3 5 C-2.34 5 -1.68 5 -1 5 C-0.67 3.35 -0.34 1.7 0 0 Z " fill="#8890AA" transform="translate(38,35)"/>
<path d="M0 0 C1.65 0.33 3.3 0.66 5 1 C5 1.99 5 2.98 5 4 C4.34 4 3.68 4 3 4 C3 5.32 3 6.64 3 8 C2.01 8 1.02 8 0 8 C-0.33 8.99 -0.66 9.98 -1 11 C-1.99 11 -2.98 11 -4 11 C-4 12.32 -4 13.64 -4 15 C-6.31 15 -8.62 15 -11 15 C-11 14.34 -11 13.68 -11 13 C-9.04775792 11.71593601 -7.03659238 10.52058322 -5 9.375 C-3.329375 8.42753906 -3.329375 8.42753906 -1.625 7.4609375 C-0.75875 6.97882813 0.1075 6.49671875 1 6 C0.67 4.02 0.34 2.04 0 0 Z " fill="#F7F8F8" transform="translate(103,106)"/>
<path d="M0 0 C1.32 0 2.64 0 4 0 C3.29445932 3.66881155 1.72264494 6.70450534 0 10 C1.65 10.33 3.3 10.66 5 11 C4.67 11.99 4.34 12.98 4 14 C3.01 14 2.02 14 1 14 C1 13.34 1 12.68 1 12 C-0.32 11.67 -1.64 11.34 -3 11 C-3 9.35 -3 7.7 -3 6 C-2.34 6 -1.68 6 -1 6 C-0.67 4.02 -0.34 2.04 0 0 Z " fill="#F1F3F5" transform="translate(13,37)"/>
<path d="M0 0 C3.45826342 -0.05789006 6.91640293 -0.09355821 10.375 -0.125 C11.35984375 -0.14175781 12.3446875 -0.15851562 13.359375 -0.17578125 C14.77089844 -0.18544922 14.77089844 -0.18544922 16.2109375 -0.1953125 C17.51490479 -0.21102295 17.51490479 -0.21102295 18.84521484 -0.22705078 C21 0 21 0 23 2 C15.41 2.33 7.82 2.66 0 3 C0 2.01 0 1.02 0 0 Z " fill="#EBDEDE" transform="translate(52,10)"/>
<path d="M0 0 C0.99 0.495 0.99 0.495 2 1 C3.11421833 4.64653273 2.94296589 7.33291043 2 11 C2.99 11 3.98 11 5 11 C4.690625 11.5775 4.38125 12.155 4.0625 12.75 C3.07416636 14.84294184 2.4831387 16.74535275 2 19 C1.34 18.67 0.68 18.34 0 18 C0 12.06 0 6.12 0 0 Z " fill="#FBFBFC" transform="translate(6,55)"/>
<path d="M0 0 C4.10958767 1.45044271 7.43258745 3.51110752 11 6 C10.67 6.66 10.34 7.32 10 8 C11.32 8.66 12.64 9.32 14 10 C12.02 10 10.04 10 8 10 C7.67 8.68 7.34 7.36 7 6 C5.68 6 4.36 6 3 6 C3 5.34 3 4.68 3 4 C2.01 3.67 1.02 3.34 0 3 C0 2.01 0 1.02 0 0 Z " fill="#A0A1A1" transform="translate(27,112)"/>
<path d="M0 0 C0.66 0.33 1.32 0.66 2 1 C0.02 1.99 0.02 1.99 -2 3 C-2 3.66 -2 4.32 -2 5 C0.64 5.33 3.28 5.66 6 6 C6 6.33 6 6.66 6 7 C2.04 7 -1.92 7 -6 7 C-6.33 7.99 -6.66 8.98 -7 10 C-7.33 9.34 -7.66 8.68 -8 8 C-6.12422643 3.93582393 -4.06417607 1.87577357 0 0 Z " fill="#D3BBBC" transform="translate(90,47)"/>
<path d="M0 0 C2.912575 0.08566397 4.56798024 0.57910955 6.66796875 2.625 C8.16091772 4.38391375 9.60436262 6.16313019 11 8 C9.02 8 7.04 8 5 8 C3.79371992 5.66785852 2.8345262 3.50357861 2 1 C1.34 0.67 0.68 0.34 0 0 Z " fill="#F3F1F0" transform="translate(101,96)"/>
<path d="M0 0 C-0.33 2.31 -0.66 4.62 -1 7 C-3.99324263 5.9024777 -4.84610901 5.32317108 -6.25 2.375 C-6.4975 1.59125 -6.745 0.8075 -7 0 C-3.86650268 -1.04449911 -3.01031744 -0.93423645 0 0 Z " fill="#8F98B3" transform="translate(26,66)"/>
<path d="M0 0 C2.31 0 4.62 0 7 0 C7 3.3 7 6.6 7 10 C5.53867783 7.07735566 4.65900754 5.07536854 4 2 C2.68 2.33 1.36 2.66 0 3 C0 2.01 0 1.02 0 0 Z " fill="#F0F1F2" transform="translate(116,43)"/>
<path d="M0 0 C1.62490954 -0.02698189 3.24994633 -0.04638757 4.875 -0.0625 C5.77992187 -0.07410156 6.68484375 -0.08570312 7.6171875 -0.09765625 C10 0 10 0 12 1 C11.67 1.99 11.34 2.98 11 4 C11 3.34 11 2.68 11 2 C8.36 2 5.72 2 3 2 C2.67 2.66 2.34 3.32 2 4 C1.34 2.68 0.68 1.36 0 0 Z " fill="#172043" transform="translate(110,83)"/>
<path d="M0 0 C3.3 0 6.6 0 10 0 C9.67 1.32 9.34 2.64 9 4 C2.25 2.25 2.25 2.25 0 0 Z " fill="#DCD4D4" transform="translate(73,10)"/>
<path d="M0 0 C2.64 0.99 5.28 1.98 8 3 C7.67 3.99 7.34 4.98 7 6 C5.02 6 3.04 6 1 6 C0.67 4.02 0.34 2.04 0 0 Z " fill="#31406F" transform="translate(33,67)"/>
<path d="M0 0 C1.5625 1.25 1.5625 1.25 3 3 C2.875 5.125 2.875 5.125 2 7 C1.01 7.33 0.02 7.66 -1 8 C-1.66 7.34 -2.32 6.68 -3 6 C-2 3 -2 3 0 0 Z " fill="#676E85" transform="translate(10,50)"/>
<path d="M0 0 C0.33 0 0.66 0 1 0 C1.08096803 1.45742463 1.13917774 2.91612807 1.1875 4.375 C1.22230469 5.18710937 1.25710937 5.99921875 1.29296875 6.8359375 C1.19628906 7.55007812 1.09960938 8.26421875 1 9 C0.01 9.66 -0.98 10.32 -2 11 C-3.125 4.25 -3.125 4.25 -2 2 C-1.34 2 -0.68 2 0 2 C0 1.34 0 0.68 0 0 Z " fill="#1A2A5F" transform="translate(56,38)"/>
<path d="M0 0 C0.33 0 0.66 0 1 0 C1 2.64 1 5.28 1 8 C0.34 8 -0.32 8 -1 8 C-1.33 8.66 -1.66 9.32 -2 10 C-3.09658936 6.71023192 -2.79953138 5.28696233 -2 2 C-1.34 2 -0.68 2 0 2 C0 1.34 0 0.68 0 0 Z " fill="#1A2B60" transform="translate(56,21)"/>
<path d="M0 0 C3.3 0 6.6 0 10 0 C6.32326162 1.83836919 2.95007553 2.93651813 -1 4 C-0.67 2.68 -0.34 1.36 0 0 Z " fill="#EEEFEE" transform="translate(42,13)"/>
<path d="M0 0 C1.98 0 3.96 0 6 0 C5.67 1.32 5.34 2.64 5 4 C3.68 4 2.36 4 1 4 C0.67 2.68 0.34 1.36 0 0 Z " fill="#C7CCD7" transform="translate(26,35)"/>
<path d="M0 0 C0.33 0.99 0.66 1.98 1 3 C0.01 3 -0.98 3 -2 3 C-2.66 3.66 -3.32 4.32 -4 5 C-4 4.34 -4 3.68 -4 3 C-5.32 3.99 -6.64 4.98 -8 6 C-7.67 4.35 -7.34 2.7 -7 1 C-3.535 0.505 -3.535 0.505 0 0 Z " fill="#868EAC" transform="translate(45,15)"/>
<path d="M0 0 C0.66 0.66 1.32 1.32 2 2 C1.34 2 0.68 2 0 2 C0 1.34 0 0.68 0 0 Z M-5 1 C-2.5625 1.375 -2.5625 1.375 0 2 C0.33 2.66 0.66 3.32 1 4 C-0.98 4.33 -2.96 4.66 -5 5 C-5.33 4.34 -5.66 3.68 -6 3 C-5.67 2.34 -5.34 1.68 -5 1 Z " fill="#1B295F" transform="translate(33,62)"/>
<path d="M0 0 C2.475 0.495 2.475 0.495 5 1 C5 1.99 5 2.98 5 4 C4.34 4 3.68 4 3 4 C3 5.32 3 6.64 3 8 C2.01 7.67 1.02 7.34 0 7 C0.185625 6.21625 0.37125 5.4325 0.5625 4.625 C1.25962266 2.02910225 1.25962266 2.02910225 0 0 Z " fill="#E8E9EC" transform="translate(103,106)"/>
<path d="M0 0 C1.98 0 3.96 0 6 0 C5.01 0.495 5.01 0.495 4 1 C4 1.66 4 2.32 4 3 C4.66 3 5.32 3 6 3 C5.67 3.99 5.34 4.98 5 6 C3.2925002 4.71937515 1.62626404 3.38232443 0 2 C0 1.34 0 0.68 0 0 Z " fill="#FBFBF9" transform="translate(97,100)"/>
<path d="M0 0 C2.125 0.9375 2.125 0.9375 4 2 C3.01 3.485 3.01 3.485 2 5 C1.01 5 0.02 5 -1 5 C-1.33 3.68 -1.66 2.36 -2 1 C-1.34 0.67 -0.68 0.34 0 0 Z " fill="#DAE0E8" transform="translate(28,47)"/>
<path d="M0 0 C2.125 0.9375 2.125 0.9375 4 2 C3.01 3.485 3.01 3.485 2 5 C1.01 5 0.02 5 -1 5 C-1.33 3.68 -1.66 2.36 -2 1 C-1.34 0.67 -0.68 0.34 0 0 Z " fill="#E1E3EC" transform="translate(42,22)"/>
<path d="M0 0 C0.99 0.66 1.98 1.32 3 2 C2.34 2 1.68 2 1 2 C0.67 3.65 0.34 5.3 0 7 C-1.32 6.67 -2.64 6.34 -4 6 C-3.67 5.01 -3.34 4.02 -3 3 C-2.34 2.67 -1.68 2.34 -1 2 C-0.67 1.34 -0.34 0.68 0 0 Z " fill="#F1F4F6" transform="translate(31,20)"/>
<path d="M0 0 C2.125 0.9375 2.125 0.9375 4 2 C3.01 3.485 3.01 3.485 2 5 C1.01 5 0.02 5 -1 5 C-1.33 3.68 -1.66 2.36 -2 1 C-1.34 0.67 -0.68 0.34 0 0 Z " fill="#E7ECF1" transform="translate(49,16)"/>
<path d="M0 0 C0.99 0 1.98 0 3 0 C2.690625 0.5775 2.38125 1.155 2.0625 1.75 C1.07416636 3.84294184 0.4831387 5.74535275 0 8 C-0.66 7.67 -1.32 7.34 -2 7 C-1.34 4.69 -0.68 2.38 0 0 Z " fill="#DBDCE1" transform="translate(8,66)"/>
<path d="M0 0 C2.125 0.9375 2.125 0.9375 4 2 C3.01 3.485 3.01 3.485 2 5 C1.01 5 0.02 5 -1 5 C-1.33 3.68 -1.66 2.36 -2 1 C-1.34 0.67 -0.68 0.34 0 0 Z " fill="#ECF1F5" transform="translate(35,53)"/>
<path d="M0 0 C2.125 0.9375 2.125 0.9375 4 2 C3.01 3.485 3.01 3.485 2 5 C1.01 5 0.02 5 -1 5 C-1.33 3.68 -1.66 2.36 -2 1 C-1.34 0.67 -0.68 0.34 0 0 Z " fill="#EDF1F6" transform="translate(21,53)"/>
<path d="M0 0 C2.125 0.9375 2.125 0.9375 4 2 C3.67 2.66 3.34 3.32 3 4 C0.9375 4.625 0.9375 4.625 -1 5 C-1.33 3.68 -1.66 2.36 -2 1 C-1.34 0.67 -0.68 0.34 0 0 Z " fill="#D7DCE8" transform="translate(42,47)"/>
</svg>
